<mxfile host="app.diagrams.net" modified="2023-07-02T08:04:36.940Z" agent="Mozilla/5.0 (Macintosh; Intel Mac OS X 10_15_7) AppleWebKit/537.36 (KHTML, like Gecko) Chrome/111.0.0.0 Safari/537.36" etag="8BfdT19bkVrCq5fMradV" version="21.5.2" type="github">
  <diagram name="第 1 页" id="Qwnx7HLIJkxO82drDPAV">
    <mxGraphModel dx="1193" dy="699" grid="1" gridSize="10" guides="1" tooltips="1" connect="1" arrows="1" fold="1" page="1" pageScale="1" pageWidth="827" pageHeight="1169" math="0" shadow="0">
      <root>
        <mxCell id="0" />
        <mxCell id="1" parent="0" />
        <mxCell id="YSNFkO6s6Fgr6ya0v-bq-80" value="" style="rounded=0;whiteSpace=wrap;html=1;" vertex="1" parent="1">
          <mxGeometry x="290" y="920" width="890" height="140" as="geometry" />
        </mxCell>
        <mxCell id="YSNFkO6s6Fgr6ya0v-bq-82" value="" style="rounded=1;whiteSpace=wrap;html=1;" vertex="1" parent="1">
          <mxGeometry x="590" y="951" width="310" height="79" as="geometry" />
        </mxCell>
        <mxCell id="YSNFkO6s6Fgr6ya0v-bq-63" value="" style="rounded=1;whiteSpace=wrap;html=1;" vertex="1" parent="1">
          <mxGeometry x="310" y="950" width="260" height="78" as="geometry" />
        </mxCell>
        <mxCell id="YSNFkO6s6Fgr6ya0v-bq-24" style="edgeStyle=orthogonalEdgeStyle;rounded=0;orthogonalLoop=1;jettySize=auto;html=1;entryX=0;entryY=0.5;entryDx=0;entryDy=0;entryPerimeter=0;curved=1;" edge="1" parent="1" source="YSNFkO6s6Fgr6ya0v-bq-9" target="YSNFkO6s6Fgr6ya0v-bq-22">
          <mxGeometry relative="1" as="geometry" />
        </mxCell>
        <mxCell id="YSNFkO6s6Fgr6ya0v-bq-26" value="binlog消息发送到mq" style="edgeLabel;html=1;align=center;verticalAlign=middle;resizable=0;points=[];" vertex="1" connectable="0" parent="YSNFkO6s6Fgr6ya0v-bq-24">
          <mxGeometry x="-0.0381" y="-2" relative="1" as="geometry">
            <mxPoint as="offset" />
          </mxGeometry>
        </mxCell>
        <mxCell id="YSNFkO6s6Fgr6ya0v-bq-9" value="canle" style="strokeWidth=2;html=1;shape=mxgraph.flowchart.direct_data;whiteSpace=wrap;" vertex="1" parent="1">
          <mxGeometry x="220" y="456" width="70" height="60" as="geometry" />
        </mxCell>
        <mxCell id="YSNFkO6s6Fgr6ya0v-bq-27" style="edgeStyle=orthogonalEdgeStyle;rounded=0;orthogonalLoop=1;jettySize=auto;html=1;entryX=1;entryY=0.5;entryDx=0;entryDy=0;entryPerimeter=0;dashed=1;exitX=0;exitY=0.5;exitDx=0;exitDy=0;" edge="1" parent="1" source="YSNFkO6s6Fgr6ya0v-bq-28" target="YSNFkO6s6Fgr6ya0v-bq-22">
          <mxGeometry relative="1" as="geometry">
            <mxPoint x="550" y="364" as="sourcePoint" />
          </mxGeometry>
        </mxCell>
        <mxCell id="YSNFkO6s6Fgr6ya0v-bq-29" value="每秒主动从mq拉取一定数据" style="edgeLabel;html=1;align=center;verticalAlign=middle;resizable=0;points=[];" vertex="1" connectable="0" parent="YSNFkO6s6Fgr6ya0v-bq-27">
          <mxGeometry x="0.0429" relative="1" as="geometry">
            <mxPoint as="offset" />
          </mxGeometry>
        </mxCell>
        <mxCell id="YSNFkO6s6Fgr6ya0v-bq-15" style="edgeStyle=orthogonalEdgeStyle;rounded=0;orthogonalLoop=1;jettySize=auto;html=1;curved=1;" edge="1" parent="1" source="YSNFkO6s6Fgr6ya0v-bq-14" target="YSNFkO6s6Fgr6ya0v-bq-9">
          <mxGeometry relative="1" as="geometry" />
        </mxCell>
        <mxCell id="YSNFkO6s6Fgr6ya0v-bq-21" value="binlog同步" style="edgeLabel;html=1;align=center;verticalAlign=middle;resizable=0;points=[];" vertex="1" connectable="0" parent="YSNFkO6s6Fgr6ya0v-bq-15">
          <mxGeometry x="0.12" y="-3" relative="1" as="geometry">
            <mxPoint as="offset" />
          </mxGeometry>
        </mxCell>
        <mxCell id="YSNFkO6s6Fgr6ya0v-bq-14" value="" style="image;aspect=fixed;html=1;points=[];align=center;fontSize=12;image=img/lib/azure2/databases/Azure_Database_MySQL_Server.svg;" vertex="1" parent="1">
          <mxGeometry x="67" y="456" width="48" height="64" as="geometry" />
        </mxCell>
        <mxCell id="YSNFkO6s6Fgr6ya0v-bq-23" style="edgeStyle=orthogonalEdgeStyle;rounded=0;orthogonalLoop=1;jettySize=auto;html=1;entryX=0;entryY=0.5;entryDx=0;entryDy=0;entryPerimeter=0;curved=1;" edge="1" parent="1" source="YSNFkO6s6Fgr6ya0v-bq-16" target="YSNFkO6s6Fgr6ya0v-bq-22">
          <mxGeometry relative="1" as="geometry" />
        </mxCell>
        <mxCell id="YSNFkO6s6Fgr6ya0v-bq-25" value="业务数据发送到mq" style="edgeLabel;html=1;align=center;verticalAlign=middle;resizable=0;points=[];" vertex="1" connectable="0" parent="YSNFkO6s6Fgr6ya0v-bq-23">
          <mxGeometry x="-0.4923" y="4" relative="1" as="geometry">
            <mxPoint x="26" y="36" as="offset" />
          </mxGeometry>
        </mxCell>
        <mxCell id="YSNFkO6s6Fgr6ya0v-bq-16" value="" style="image;aspect=fixed;html=1;points=[];align=center;fontSize=12;image=img/lib/azure2/databases/Virtual_Clusters.svg;" vertex="1" parent="1">
          <mxGeometry x="64.5" y="260" width="66" height="64" as="geometry" />
        </mxCell>
        <mxCell id="YSNFkO6s6Fgr6ya0v-bq-22" value="mq" style="shape=cylinder3;whiteSpace=wrap;html=1;boundedLbl=1;backgroundOutline=1;size=15;" vertex="1" parent="1">
          <mxGeometry x="390" y="324" width="60" height="80" as="geometry" />
        </mxCell>
        <mxCell id="YSNFkO6s6Fgr6ya0v-bq-33" style="edgeStyle=orthogonalEdgeStyle;rounded=0;orthogonalLoop=1;jettySize=auto;html=1;" edge="1" parent="1" source="YSNFkO6s6Fgr6ya0v-bq-28" target="YSNFkO6s6Fgr6ya0v-bq-32">
          <mxGeometry relative="1" as="geometry" />
        </mxCell>
        <mxCell id="YSNFkO6s6Fgr6ya0v-bq-34" value="批量处理" style="edgeLabel;html=1;align=center;verticalAlign=middle;resizable=0;points=[];" vertex="1" connectable="0" parent="YSNFkO6s6Fgr6ya0v-bq-33">
          <mxGeometry x="-0.231" y="1" relative="1" as="geometry">
            <mxPoint as="offset" />
          </mxGeometry>
        </mxCell>
        <mxCell id="YSNFkO6s6Fgr6ya0v-bq-28" value="员工营销系统" style="rounded=1;whiteSpace=wrap;html=1;" vertex="1" parent="1">
          <mxGeometry x="841" y="336" width="126" height="56" as="geometry" />
        </mxCell>
        <mxCell id="YSNFkO6s6Fgr6ya0v-bq-32" value="" style="rounded=0;whiteSpace=wrap;html=1;" vertex="1" parent="1">
          <mxGeometry x="830" y="450" width="150" height="380" as="geometry" />
        </mxCell>
        <mxCell id="YSNFkO6s6Fgr6ya0v-bq-37" value="" style="edgeStyle=orthogonalEdgeStyle;rounded=0;orthogonalLoop=1;jettySize=auto;html=1;" edge="1" parent="1" source="YSNFkO6s6Fgr6ya0v-bq-35" target="YSNFkO6s6Fgr6ya0v-bq-36">
          <mxGeometry relative="1" as="geometry" />
        </mxCell>
        <mxCell id="YSNFkO6s6Fgr6ya0v-bq-40" style="edgeStyle=orthogonalEdgeStyle;rounded=0;orthogonalLoop=1;jettySize=auto;html=1;dashed=1;entryX=0;entryY=0.5;entryDx=0;entryDy=0;" edge="1" parent="1" source="YSNFkO6s6Fgr6ya0v-bq-35" target="YSNFkO6s6Fgr6ya0v-bq-41">
          <mxGeometry relative="1" as="geometry">
            <mxPoint x="1084" y="488" as="targetPoint" />
          </mxGeometry>
        </mxCell>
        <mxCell id="YSNFkO6s6Fgr6ya0v-bq-35" value="提取数据id" style="rounded=1;whiteSpace=wrap;html=1;" vertex="1" parent="1">
          <mxGeometry x="844" y="468" width="120" height="40" as="geometry" />
        </mxCell>
        <mxCell id="YSNFkO6s6Fgr6ya0v-bq-43" style="edgeStyle=orthogonalEdgeStyle;rounded=0;orthogonalLoop=1;jettySize=auto;html=1;entryX=0.5;entryY=0;entryDx=0;entryDy=0;" edge="1" parent="1" source="YSNFkO6s6Fgr6ya0v-bq-36" target="YSNFkO6s6Fgr6ya0v-bq-42">
          <mxGeometry relative="1" as="geometry" />
        </mxCell>
        <mxCell id="YSNFkO6s6Fgr6ya0v-bq-64" style="edgeStyle=orthogonalEdgeStyle;rounded=0;orthogonalLoop=1;jettySize=auto;html=1;entryX=0.5;entryY=0;entryDx=0;entryDy=0;curved=1;dashed=1;" edge="1" parent="1" source="YSNFkO6s6Fgr6ya0v-bq-36" target="YSNFkO6s6Fgr6ya0v-bq-63">
          <mxGeometry relative="1" as="geometry" />
        </mxCell>
        <mxCell id="YSNFkO6s6Fgr6ya0v-bq-65" value="反查业务库数据" style="edgeLabel;html=1;align=center;verticalAlign=middle;resizable=0;points=[];" vertex="1" connectable="0" parent="YSNFkO6s6Fgr6ya0v-bq-64">
          <mxGeometry x="0.2107" y="36" relative="1" as="geometry">
            <mxPoint x="72" y="-7" as="offset" />
          </mxGeometry>
        </mxCell>
        <mxCell id="YSNFkO6s6Fgr6ya0v-bq-107" style="edgeStyle=orthogonalEdgeStyle;rounded=0;orthogonalLoop=1;jettySize=auto;html=1;entryX=0;entryY=0.5;entryDx=0;entryDy=0;dashed=1;" edge="1" parent="1" source="YSNFkO6s6Fgr6ya0v-bq-36" target="YSNFkO6s6Fgr6ya0v-bq-106">
          <mxGeometry relative="1" as="geometry" />
        </mxCell>
        <mxCell id="YSNFkO6s6Fgr6ya0v-bq-36" value="数据转换" style="rounded=1;whiteSpace=wrap;html=1;dashed=1;" vertex="1" parent="1">
          <mxGeometry x="844" y="540" width="120" height="40" as="geometry" />
        </mxCell>
        <mxCell id="YSNFkO6s6Fgr6ya0v-bq-41" value="&lt;h1&gt;&lt;span style=&quot;background-color: initial; font-size: 12px; font-weight: normal;&quot;&gt;采用表达式配置的方式，提取消息中的关键信息&lt;/span&gt;&lt;br&gt;&lt;/h1&gt;" style="text;html=1;strokeColor=none;fillColor=none;spacing=5;spacingTop=-20;whiteSpace=wrap;overflow=hidden;rounded=0;" vertex="1" parent="1">
          <mxGeometry x="1030" y="450" width="190" height="74" as="geometry" />
        </mxCell>
        <mxCell id="YSNFkO6s6Fgr6ya0v-bq-70" value="" style="edgeStyle=orthogonalEdgeStyle;rounded=0;orthogonalLoop=1;jettySize=auto;html=1;" edge="1" parent="1" source="YSNFkO6s6Fgr6ya0v-bq-42" target="YSNFkO6s6Fgr6ya0v-bq-69">
          <mxGeometry relative="1" as="geometry" />
        </mxCell>
        <mxCell id="YSNFkO6s6Fgr6ya0v-bq-42" value="主维度数据id" style="rounded=1;whiteSpace=wrap;html=1;" vertex="1" parent="1">
          <mxGeometry x="844" y="605" width="120" height="40" as="geometry" />
        </mxCell>
        <mxCell id="YSNFkO6s6Fgr6ya0v-bq-45" value="&lt;h1&gt;&lt;span style=&quot;background-color: initial; font-size: 12px; font-weight: normal;&quot;&gt;存储采用json字符串形式的消息&lt;/span&gt;&lt;/h1&gt;" style="text;html=1;strokeColor=none;fillColor=none;spacing=5;spacingTop=-20;whiteSpace=wrap;overflow=hidden;rounded=0;" vertex="1" parent="1">
          <mxGeometry x="336" y="267" width="195" height="50" as="geometry" />
        </mxCell>
        <mxCell id="YSNFkO6s6Fgr6ya0v-bq-50" style="edgeStyle=orthogonalEdgeStyle;rounded=0;orthogonalLoop=1;jettySize=auto;html=1;" edge="1" parent="1" source="YSNFkO6s6Fgr6ya0v-bq-46" target="YSNFkO6s6Fgr6ya0v-bq-51">
          <mxGeometry relative="1" as="geometry">
            <mxPoint x="230" y="682" as="targetPoint" />
          </mxGeometry>
        </mxCell>
        <mxCell id="YSNFkO6s6Fgr6ya0v-bq-46" value="" style="image;aspect=fixed;html=1;points=[];align=center;fontSize=12;image=img/lib/azure2/databases/Virtual_Clusters.svg;" vertex="1" parent="1">
          <mxGeometry x="58" y="650" width="66" height="64" as="geometry" />
        </mxCell>
        <mxCell id="YSNFkO6s6Fgr6ya0v-bq-47" value="业务方服务" style="text;html=1;strokeColor=none;fillColor=none;align=center;verticalAlign=middle;whiteSpace=wrap;rounded=0;" vertex="1" parent="1">
          <mxGeometry x="49.5" y="190" width="83" height="30" as="geometry" />
        </mxCell>
        <mxCell id="YSNFkO6s6Fgr6ya0v-bq-48" value="业务数据库" style="text;html=1;strokeColor=none;fillColor=none;align=center;verticalAlign=middle;whiteSpace=wrap;rounded=0;" vertex="1" parent="1">
          <mxGeometry x="53" y="420" width="79" height="26" as="geometry" />
        </mxCell>
        <mxCell id="YSNFkO6s6Fgr6ya0v-bq-49" value="员工营销服务" style="text;html=1;strokeColor=none;fillColor=none;align=center;verticalAlign=middle;whiteSpace=wrap;rounded=0;" vertex="1" parent="1">
          <mxGeometry x="50" y="610" width="82" height="30" as="geometry" />
        </mxCell>
        <mxCell id="YSNFkO6s6Fgr6ya0v-bq-56" style="edgeStyle=orthogonalEdgeStyle;rounded=0;orthogonalLoop=1;jettySize=auto;html=1;entryX=0.5;entryY=1;entryDx=0;entryDy=0;entryPerimeter=0;curved=1;" edge="1" parent="1" source="YSNFkO6s6Fgr6ya0v-bq-51" target="YSNFkO6s6Fgr6ya0v-bq-22">
          <mxGeometry relative="1" as="geometry" />
        </mxCell>
        <mxCell id="YSNFkO6s6Fgr6ya0v-bq-57" value="投递到mq" style="edgeLabel;html=1;align=center;verticalAlign=middle;resizable=0;points=[];" vertex="1" connectable="0" parent="YSNFkO6s6Fgr6ya0v-bq-56">
          <mxGeometry x="0.1776" y="14" relative="1" as="geometry">
            <mxPoint as="offset" />
          </mxGeometry>
        </mxCell>
        <mxCell id="YSNFkO6s6Fgr6ya0v-bq-66" style="edgeStyle=orthogonalEdgeStyle;rounded=0;orthogonalLoop=1;jettySize=auto;html=1;entryX=0;entryY=0.5;entryDx=0;entryDy=0;curved=1;exitX=0.5;exitY=1;exitDx=0;exitDy=0;dashed=1;" edge="1" parent="1" source="YSNFkO6s6Fgr6ya0v-bq-51" target="YSNFkO6s6Fgr6ya0v-bq-63">
          <mxGeometry relative="1" as="geometry">
            <Array as="points">
              <mxPoint x="250" y="989" />
            </Array>
          </mxGeometry>
        </mxCell>
        <mxCell id="YSNFkO6s6Fgr6ya0v-bq-67" value="遍历" style="edgeLabel;html=1;align=center;verticalAlign=middle;resizable=0;points=[];" vertex="1" connectable="0" parent="YSNFkO6s6Fgr6ya0v-bq-66">
          <mxGeometry x="-0.3105" y="14" relative="1" as="geometry">
            <mxPoint y="-1" as="offset" />
          </mxGeometry>
        </mxCell>
        <mxCell id="YSNFkO6s6Fgr6ya0v-bq-51" value="遍历查询业务库中的所有数据" style="rounded=1;whiteSpace=wrap;html=1;" vertex="1" parent="1">
          <mxGeometry x="200" y="658" width="100" height="48" as="geometry" />
        </mxCell>
        <mxCell id="YSNFkO6s6Fgr6ya0v-bq-59" value="" style="image;aspect=fixed;html=1;points=[];align=center;fontSize=12;image=img/lib/azure2/databases/Azure_Database_MySQL_Server.svg;" vertex="1" parent="1">
          <mxGeometry x="336" y="958" width="48" height="64" as="geometry" />
        </mxCell>
        <mxCell id="YSNFkO6s6Fgr6ya0v-bq-61" value="" style="image;aspect=fixed;html=1;points=[];align=center;fontSize=12;image=img/lib/azure2/databases/Azure_Database_MySQL_Server.svg;" vertex="1" parent="1">
          <mxGeometry x="420" y="958" width="48" height="64" as="geometry" />
        </mxCell>
        <mxCell id="YSNFkO6s6Fgr6ya0v-bq-62" value="" style="image;aspect=fixed;html=1;points=[];align=center;fontSize=12;image=img/lib/azure2/databases/Azure_Database_MySQL_Server.svg;" vertex="1" parent="1">
          <mxGeometry x="500" y="958" width="48" height="64" as="geometry" />
        </mxCell>
        <mxCell id="YSNFkO6s6Fgr6ya0v-bq-71" style="edgeStyle=orthogonalEdgeStyle;rounded=0;orthogonalLoop=1;jettySize=auto;html=1;" edge="1" parent="1" source="YSNFkO6s6Fgr6ya0v-bq-69" target="YSNFkO6s6Fgr6ya0v-bq-72">
          <mxGeometry relative="1" as="geometry">
            <mxPoint x="1080" y="691.5" as="targetPoint" />
          </mxGeometry>
        </mxCell>
        <mxCell id="YSNFkO6s6Fgr6ya0v-bq-73" value="提交任务" style="edgeLabel;html=1;align=center;verticalAlign=middle;resizable=0;points=[];" vertex="1" connectable="0" parent="YSNFkO6s6Fgr6ya0v-bq-71">
          <mxGeometry x="-0.0185" y="-3" relative="1" as="geometry">
            <mxPoint as="offset" />
          </mxGeometry>
        </mxCell>
        <mxCell id="YSNFkO6s6Fgr6ya0v-bq-76" value="" style="edgeStyle=orthogonalEdgeStyle;rounded=0;orthogonalLoop=1;jettySize=auto;html=1;dashed=1;" edge="1" parent="1" source="YSNFkO6s6Fgr6ya0v-bq-69" target="YSNFkO6s6Fgr6ya0v-bq-75">
          <mxGeometry relative="1" as="geometry" />
        </mxCell>
        <mxCell id="YSNFkO6s6Fgr6ya0v-bq-77" value="阻塞等待任务完成" style="edgeLabel;html=1;align=center;verticalAlign=middle;resizable=0;points=[];" vertex="1" connectable="0" parent="YSNFkO6s6Fgr6ya0v-bq-76">
          <mxGeometry x="-0.2273" y="1" relative="1" as="geometry">
            <mxPoint x="-1" y="5" as="offset" />
          </mxGeometry>
        </mxCell>
        <mxCell id="YSNFkO6s6Fgr6ya0v-bq-69" value="拆分任务&lt;br&gt;并发组装" style="whiteSpace=wrap;html=1;rounded=1;" vertex="1" parent="1">
          <mxGeometry x="844" y="669" width="120" height="45" as="geometry" />
        </mxCell>
        <mxCell id="YSNFkO6s6Fgr6ya0v-bq-95" style="edgeStyle=orthogonalEdgeStyle;rounded=0;orthogonalLoop=1;jettySize=auto;html=1;curved=1;dashed=1;" edge="1" parent="1" source="YSNFkO6s6Fgr6ya0v-bq-72" target="YSNFkO6s6Fgr6ya0v-bq-80">
          <mxGeometry relative="1" as="geometry">
            <Array as="points">
              <mxPoint x="670" y="850" />
              <mxPoint x="730" y="850" />
            </Array>
          </mxGeometry>
        </mxCell>
        <mxCell id="YSNFkO6s6Fgr6ya0v-bq-96" value="反查业务数据，组装数据" style="edgeLabel;html=1;align=center;verticalAlign=middle;resizable=0;points=[];" vertex="1" connectable="0" parent="YSNFkO6s6Fgr6ya0v-bq-95">
          <mxGeometry x="-0.2153" y="8" relative="1" as="geometry">
            <mxPoint as="offset" />
          </mxGeometry>
        </mxCell>
        <mxCell id="YSNFkO6s6Fgr6ya0v-bq-97" style="edgeStyle=orthogonalEdgeStyle;rounded=0;orthogonalLoop=1;jettySize=auto;html=1;entryX=0;entryY=0.5;entryDx=0;entryDy=0;curved=1;" edge="1" parent="1" source="YSNFkO6s6Fgr6ya0v-bq-72" target="YSNFkO6s6Fgr6ya0v-bq-75">
          <mxGeometry relative="1" as="geometry">
            <Array as="points">
              <mxPoint x="670" y="760" />
              <mxPoint x="775" y="760" />
              <mxPoint x="775" y="790" />
            </Array>
          </mxGeometry>
        </mxCell>
        <mxCell id="YSNFkO6s6Fgr6ya0v-bq-98" value="执行成功" style="edgeLabel;html=1;align=center;verticalAlign=middle;resizable=0;points=[];" vertex="1" connectable="0" parent="YSNFkO6s6Fgr6ya0v-bq-97">
          <mxGeometry x="-0.1335" relative="1" as="geometry">
            <mxPoint as="offset" />
          </mxGeometry>
        </mxCell>
        <mxCell id="YSNFkO6s6Fgr6ya0v-bq-104" style="edgeStyle=orthogonalEdgeStyle;rounded=0;orthogonalLoop=1;jettySize=auto;html=1;curved=1;dashed=1;strokeColor=#FF3333;" edge="1" parent="1">
          <mxGeometry relative="1" as="geometry">
            <mxPoint x="420" y="404" as="targetPoint" />
            <mxPoint x="610" y="685.5333333333335" as="sourcePoint" />
          </mxGeometry>
        </mxCell>
        <mxCell id="YSNFkO6s6Fgr6ya0v-bq-105" value="执行失败" style="edgeLabel;html=1;align=center;verticalAlign=middle;resizable=0;points=[];" vertex="1" connectable="0" parent="YSNFkO6s6Fgr6ya0v-bq-104">
          <mxGeometry x="0.2094" y="-36" relative="1" as="geometry">
            <mxPoint x="4" y="20" as="offset" />
          </mxGeometry>
        </mxCell>
        <mxCell id="YSNFkO6s6Fgr6ya0v-bq-72" value="线程池" style="rounded=1;whiteSpace=wrap;html=1;" vertex="1" parent="1">
          <mxGeometry x="590" y="661.5" width="120" height="60" as="geometry" />
        </mxCell>
        <mxCell id="YSNFkO6s6Fgr6ya0v-bq-99" style="edgeStyle=orthogonalEdgeStyle;rounded=0;orthogonalLoop=1;jettySize=auto;html=1;entryX=0;entryY=0.5;entryDx=0;entryDy=0;entryPerimeter=0;" edge="1" parent="1" source="YSNFkO6s6Fgr6ya0v-bq-75" target="YSNFkO6s6Fgr6ya0v-bq-100">
          <mxGeometry relative="1" as="geometry">
            <mxPoint x="1384" y="795" as="targetPoint" />
          </mxGeometry>
        </mxCell>
        <mxCell id="YSNFkO6s6Fgr6ya0v-bq-101" value="输出到es宽表" style="edgeLabel;html=1;align=center;verticalAlign=middle;resizable=0;points=[];" vertex="1" connectable="0" parent="YSNFkO6s6Fgr6ya0v-bq-99">
          <mxGeometry x="0.0196" y="-5" relative="1" as="geometry">
            <mxPoint as="offset" />
          </mxGeometry>
        </mxCell>
        <mxCell id="YSNFkO6s6Fgr6ya0v-bq-75" value="组装结束" style="whiteSpace=wrap;html=1;rounded=1;" vertex="1" parent="1">
          <mxGeometry x="844" y="770" width="120" height="40" as="geometry" />
        </mxCell>
        <mxCell id="YSNFkO6s6Fgr6ya0v-bq-81" value="" style="image;aspect=fixed;html=1;points=[];align=center;fontSize=12;image=img/lib/azure2/databases/Virtual_Clusters.svg;" vertex="1" parent="1">
          <mxGeometry x="630" y="957" width="66" height="64" as="geometry" />
        </mxCell>
        <mxCell id="YSNFkO6s6Fgr6ya0v-bq-83" value="" style="image;aspect=fixed;html=1;points=[];align=center;fontSize=12;image=img/lib/azure2/databases/Virtual_Clusters.svg;" vertex="1" parent="1">
          <mxGeometry x="720" y="958" width="66" height="64" as="geometry" />
        </mxCell>
        <mxCell id="YSNFkO6s6Fgr6ya0v-bq-84" value="" style="image;aspect=fixed;html=1;points=[];align=center;fontSize=12;image=img/lib/azure2/databases/Virtual_Clusters.svg;" vertex="1" parent="1">
          <mxGeometry x="810" y="958.5" width="66" height="64" as="geometry" />
        </mxCell>
        <mxCell id="YSNFkO6s6Fgr6ya0v-bq-85" value="" style="rounded=1;whiteSpace=wrap;html=1;" vertex="1" parent="1">
          <mxGeometry x="931" y="950" width="219" height="80" as="geometry" />
        </mxCell>
        <mxCell id="YSNFkO6s6Fgr6ya0v-bq-86" value="redis" style="rounded=1;whiteSpace=wrap;html=1;" vertex="1" parent="1">
          <mxGeometry x="940" y="966.5" width="90" height="47" as="geometry" />
        </mxCell>
        <mxCell id="YSNFkO6s6Fgr6ya0v-bq-87" value="...." style="rounded=1;whiteSpace=wrap;html=1;" vertex="1" parent="1">
          <mxGeometry x="1050" y="967.5" width="90" height="46" as="geometry" />
        </mxCell>
        <mxCell id="YSNFkO6s6Fgr6ya0v-bq-100" value="es" style="shape=cylinder3;whiteSpace=wrap;html=1;boundedLbl=1;backgroundOutline=1;size=15;" vertex="1" parent="1">
          <mxGeometry x="1095" y="750" width="60" height="80" as="geometry" />
        </mxCell>
        <mxCell id="YSNFkO6s6Fgr6ya0v-bq-106" value="&lt;h1&gt;&lt;span style=&quot;font-size: 12px; font-weight: 400;&quot;&gt;该步骤，根据消息类型，来判断是否存在。&lt;/span&gt;&lt;/h1&gt;" style="text;html=1;strokeColor=none;fillColor=none;spacing=5;spacingTop=-20;whiteSpace=wrap;overflow=hidden;rounded=0;" vertex="1" parent="1">
          <mxGeometry x="1030" y="520" width="190" height="80" as="geometry" />
        </mxCell>
      </root>
    </mxGraphModel>
  </diagram>
</mxfile>
